<svg width="134" height="45" viewBox="0 0 134 45" fill="none" xmlns="http://www.w3.org/2000/svg">
<g clip-path="url(#clip0)">
<path d="M12.441 32.9751L7.975 25.0871H6.061V32.9751H2.001V12.7331H9.599C11.165 12.7331 12.499 13.0134 13.601 13.5741C14.703 14.1154 15.5247 14.8598 16.066 15.8071C16.6267 16.7351 16.907 17.7791 16.907 18.9391C16.907 20.2731 16.5203 21.4814 15.747 22.5641C14.9737 23.6274 13.8233 24.3621 12.296 24.7681L17.139 32.9751H12.441ZM6.061 22.0421H9.454C10.556 22.0421 11.3777 21.7811 11.919 21.2591C12.4603 20.7178 12.731 19.9734 12.731 19.0261C12.731 18.0981 12.4603 17.3828 11.919 16.8801C11.3777 16.3581 10.556 16.0971 9.454 16.0971H6.061V22.0421ZM47.4911 29.1181H39.4291L38.0951 32.9751H33.8321L41.1111 12.7041H45.8381L53.1171 32.9751H48.8251L47.4911 29.1181ZM46.3891 25.8701L43.4601 17.4021L40.5311 25.8701H46.3891ZM74.4849 29.5531H83.5909V32.9751H69.7869V29.8431L78.8349 16.1551H69.7869V12.7331H83.5909V15.8651L74.4849 29.5531ZM105.549 12.7331V25.2611C105.549 26.6338 105.907 27.6874 106.622 28.4221C107.337 29.1374 108.343 29.4951 109.638 29.4951C110.953 29.4951 111.968 29.1374 112.683 28.4221C113.398 27.6874 113.756 26.6338 113.756 25.2611V12.7331H117.845V25.2321C117.845 26.9528 117.468 28.4124 116.714 29.6111C115.979 30.7904 114.984 31.6798 113.727 32.2791C112.49 32.8784 111.107 33.1781 109.58 33.1781C108.072 33.1781 106.699 32.8784 105.462 32.2791C104.244 31.6798 103.277 30.7904 102.562 29.6111C101.847 28.4124 101.489 26.9528 101.489 25.2321V12.7331H105.549Z" fill="#3E46B6"/>
<path d="M1.35156 44.3359H86.0526" stroke="#36D7FF" stroke-width="2" stroke-linecap="round"/>
</g>
<defs>
<clipPath id="clip0">
<rect width="134" height="43.3611" fill="white" transform="translate(0 0.975098)"/>
</clipPath>
</defs>
</svg>
